<svg width="1026" height="269" viewBox="0 0 1026 269" fill="none" xmlns="http://www.w3.org/2000/svg">
<g clip-path="url(#clip0_8_2)">
<path fill-rule="evenodd" clip-rule="evenodd" d="M40.976 268.219C30.108 268.219 19.686 263.902 12.001 256.218C4.317 248.533 0 238.111 0 227.243V74.378C0 63.511 4.317 53.088 12.001 45.404C19.686 37.72 30.108 33.402 40.976 33.402H69.197V8.195C69.197 3.669 72.866 0 77.392 0C82.787 0 89.823 0 95.218 0C99.744 0 103.413 3.669 103.413 8.195C103.413 18.085 103.413 33.402 103.413 33.402H175.751V8.195C175.751 3.669 179.42 0 183.946 0C189.341 0 196.377 0 201.772 0C206.298 0 209.967 3.669 209.967 8.195C209.967 18.085 209.967 33.402 209.967 33.402H238.439C249.307 33.402 259.729 37.72 267.413 45.404C275.098 53.088 279.415 63.511 279.415 74.378C279.415 99.752 279.415 132.219 279.415 157.593C279.415 168.461 275.098 178.883 267.413 186.567C259.729 194.252 249.307 198.569 238.439 198.569H130.794C126.268 198.569 122.599 194.9 122.599 190.374C122.599 184.979 122.599 177.943 122.599 172.547C122.599 168.021 126.268 164.352 130.794 164.352C153.097 164.352 214.701 164.352 237.003 164.352C241.529 164.352 245.198 160.683 245.198 156.157V75.814C245.198 73.641 244.335 71.556 242.798 70.019C241.261 68.483 239.177 67.619 237.003 67.619C203.361 67.619 76.054 67.619 42.412 67.619C40.238 67.619 38.154 68.483 36.617 70.019C35.08 71.556 34.217 73.641 34.217 75.814V225.807C34.217 227.981 35.08 230.065 36.617 231.602C38.154 233.139 40.238 234.002 42.412 234.002C79.785 234.002 186.089 234.002 223.462 234.002C227.988 234.002 231.657 237.672 231.657 242.198C231.657 247.593 231.657 254.629 231.657 260.024C231.657 264.55 227.988 268.219 223.462 268.219C189.746 268.219 108.122 268.219 40.976 268.219Z" fill="#F71943"/>
<path fill-rule="evenodd" clip-rule="evenodd" d="M87.321 94.702C91.847 94.702 95.516 98.371 95.516 102.897V120.724C95.516 125.25 91.847 128.919 87.321 128.919H69.4951C64.9691 128.919 61.3 125.25 61.3 120.724V102.897C61.3 98.371 64.9691 94.702 69.4951 94.702H87.321ZM209.92 94.702C214.446 94.702 218.115 98.371 218.115 102.897V120.724C218.115 125.25 214.446 128.919 209.92 128.919H192.094C187.568 128.919 183.899 125.25 183.899 120.724V102.897C183.899 98.371 187.568 94.702 192.094 94.702H209.92ZM148.621 94.702C153.147 94.702 156.816 98.371 156.816 102.897V120.724C156.816 125.25 153.147 128.919 148.621 128.919H130.794C126.268 128.919 122.599 125.25 122.599 120.724V102.897C122.599 98.371 126.268 94.702 130.794 94.702H148.621ZM87.321 164.352C91.847 164.352 95.516 168.021 95.516 172.547V190.374C95.516 194.9 91.847 198.569 87.321 198.569H69.4951C64.9691 198.569 61.3 194.9 61.3 190.374V172.547C61.3 168.021 64.9691 164.352 69.4951 164.352H87.321Z" fill="#1C080E"/>
<path d="M469.287 79.4221H397.422V118.057H451.271V138.275H397.422V178.712H469.287V199.13H373V59.0037H469.287V79.4221Z" fill="#1C080E"/>
<path d="M495.51 192.124C495.51 199.931 493.508 206.137 489.304 210.941C485.3 215.745 479.495 218.548 472.088 219.148L475.692 239.166C483.098 238.966 489.904 236.964 496.51 233.361C503.116 229.758 508.321 224.553 512.525 217.547C516.729 210.541 518.731 202.133 518.731 192.324V99.0398H495.51V192.124ZM506.92 84.2264C502.716 84.2264 499.113 82.8251 496.11 80.0226C493.308 77.2201 491.906 73.817 491.906 69.8134C491.906 65.6096 493.308 62.2065 496.11 59.404C499.113 56.4013 502.716 55 506.92 55C511.124 55 514.727 56.4013 517.529 59.404C520.532 62.2065 521.933 65.6096 521.933 69.8134C521.933 73.817 520.532 77.2201 517.529 80.0226C514.727 82.8251 511.124 84.2264 506.92 84.2264Z" fill="#1C080E"/>
<path d="M592.39 200.532C582.581 200.532 573.773 198.33 566.166 193.926C558.759 189.522 552.754 183.316 548.55 175.509C544.346 167.702 542.344 158.494 542.344 148.284C542.344 138.475 544.346 129.868 548.55 122.261C552.754 114.654 558.359 108.649 565.766 104.245C573.172 99.8405 581.38 97.6385 590.588 97.6385C600.197 97.6385 608.604 99.6404 615.811 103.844C623.218 108.048 628.823 113.853 632.826 121.26C637.03 128.667 639.032 137.074 639.032 146.883C639.032 148.484 638.832 150.286 638.631 152.088C638.431 153.889 638.231 155.691 638.031 157.693H567.367C567.968 162.297 569.369 166.1 571.571 169.503C573.973 172.907 576.976 175.509 580.379 177.311C583.982 179.112 588.186 179.913 592.79 179.913C598.195 179.913 602.999 178.912 607.403 176.71C611.807 174.508 614.81 171.505 616.411 167.902L636.83 174.508C632.826 182.715 626.821 189.121 619.014 193.725C611.207 198.33 602.399 200.532 592.39 200.532ZM613.609 139.276C613.409 135.072 612.408 131.469 610.206 128.266C608.204 125.063 605.401 122.461 601.998 120.659C598.595 118.658 594.992 117.657 590.788 117.657C586.985 117.657 583.582 118.658 580.379 120.459C577.176 122.261 574.373 124.863 572.171 128.066C569.969 131.069 568.368 134.872 567.567 139.276H613.609Z" fill="#1C080E"/>
<path d="M659.857 99.0398H680.876L682.477 108.849C685.88 105.446 689.684 102.643 694.288 100.641C698.892 98.6395 703.897 97.6385 709.302 97.6385C717.109 97.6385 723.915 99.24 729.52 102.643C735.325 105.846 739.529 110.65 742.532 117.056C745.534 123.262 747.136 131.269 747.136 140.677V199.13H723.915V143.88C723.915 135.673 722.313 129.267 718.91 125.063C715.507 120.86 710.503 118.658 703.897 118.658C697.091 118.658 691.886 120.86 688.283 125.063C684.88 129.267 683.078 135.673 683.078 144.081V199.13H659.857V99.0398Z" fill="#1C080E"/>
<path d="M845.419 114.053L842.817 114.454V55H866.038V199.13H844.819L843.217 186.719C839.814 190.522 835.61 193.926 830.205 196.528C824.8 199.13 818.595 200.531 811.388 200.531C802.38 200.531 794.573 198.33 787.967 194.126C781.361 189.922 776.157 183.916 772.353 176.109C768.55 168.302 766.748 159.294 766.748 149.085C766.748 138.876 768.55 129.868 772.353 122.061C776.157 114.254 781.361 108.248 787.967 104.044C794.573 99.8405 802.38 97.6385 811.388 97.6385C819.195 97.6385 826.202 99.24 832.007 102.443C837.812 105.446 842.416 109.449 845.419 114.053ZM791.57 149.085C791.57 158.093 793.973 165.5 798.577 171.105C803.181 176.71 809.387 179.513 816.993 179.513C821.598 179.513 825.801 178.311 829.605 176.109C833.608 173.707 836.811 170.304 839.214 165.7C841.616 161.096 842.817 155.691 842.817 149.085C842.817 142.479 841.616 137.074 839.214 132.47C836.811 127.866 833.608 124.463 829.605 122.261C825.801 119.859 821.598 118.658 816.993 118.658C809.387 118.658 803.181 121.46 798.577 127.065C793.973 132.67 791.57 140.077 791.57 149.085Z" fill="#1C080E"/>
<path d="M951.523 199.13L949.721 186.919C946.318 191.123 942.515 194.526 938.111 196.728C933.707 198.93 927.902 200.131 920.695 200.131C913.889 200.131 907.884 198.93 902.879 196.728C897.874 194.526 893.871 191.123 891.068 186.919C888.466 182.715 887.065 177.711 887.065 172.106C887.065 163.698 890.067 156.692 896.273 151.087C902.479 145.482 911.487 142.079 923.698 140.677L949.721 137.675V130.068C949.721 127.065 948.32 124.263 945.518 121.66C942.715 119.058 938.311 117.657 932.306 117.657C927.101 117.657 922.497 119.058 918.693 121.66C914.89 124.263 912.287 128.066 910.886 133.071L890.868 125.664C893.47 116.656 898.475 109.85 905.882 105.045C913.489 100.041 922.697 97.6385 933.507 97.6385C946.518 97.6385 956.327 100.841 962.933 107.447C969.539 114.053 972.942 122.461 972.942 132.67V199.13H951.523ZM949.721 155.291L926.1 158.293C921.095 158.894 917.492 160.295 914.89 162.497C912.488 164.699 911.287 167.301 911.287 170.504C911.287 173.507 912.488 176.109 914.89 178.311C917.292 180.513 920.695 181.514 924.899 181.514C930.304 181.514 934.708 180.513 938.311 178.712C942.114 176.71 944.917 173.907 946.719 170.304C948.72 166.501 949.721 162.097 949.721 156.692V155.291Z" fill="#1C080E"/>
<path d="M1010.77 200.532C1006.37 200.532 1002.77 199.13 999.764 196.128C996.761 193.125 995.36 189.522 995.36 185.318C995.36 181.114 996.761 177.711 999.764 174.708C1002.77 171.705 1006.37 170.304 1010.77 170.304C1014.98 170.304 1018.58 171.705 1021.58 174.708C1024.59 177.711 1025.99 181.114 1025.99 185.318C1025.99 189.522 1024.59 193.125 1021.58 196.128C1018.58 199.13 1014.98 200.532 1010.77 200.532Z" fill="#F71943"/>
</g>
<defs>
<clipPath id="clip0_8_2">
<rect width="1026" height="269" fill="white"/>
</clipPath>
</defs>
</svg>
