<?xml version="1.0" encoding="UTF-8" standalone="no"?><!DOCTYPE svg PUBLIC "-//W3C//DTD SVG 1.1//EN" "http://www.w3.org/Graphics/SVG/1.1/DTD/svg11.dtd"><svg width="1026px" height="269px" version="1.1" xmlns="http://www.w3.org/2000/svg" xmlns:xlink="http://www.w3.org/1999/xlink" xml:space="preserve" xmlns:serif="http://www.serif.com/" style="fill-rule:evenodd;clip-rule:evenodd;stroke-linejoin:round;stroke-miterlimit:2;"><g><path d="M40.976,268.219C30.108,268.219 19.686,263.902 12.001,256.218C4.317,248.533 -0,238.111 0,227.243L0,74.378C-0,63.511 4.317,53.088 12.001,45.404C19.686,37.72 30.108,33.402 40.976,33.402L69.197,33.402L69.197,8.195C69.197,3.669 72.866,0 77.392,0C82.787,0 89.823,0 95.218,0C99.744,0 103.413,3.669 103.413,8.195C103.413,18.085 103.413,33.402 103.413,33.402L175.751,33.402L175.751,8.195C175.751,3.669 179.42,0 183.946,0C189.341,0 196.377,0 201.772,0C206.298,0 209.967,3.669 209.967,8.195C209.967,18.085 209.967,33.402 209.967,33.402L238.439,33.402C249.307,33.402 259.729,37.72 267.413,45.404C275.098,53.088 279.415,63.511 279.415,74.378C279.415,99.752 279.415,132.219 279.415,157.593C279.415,168.461 275.098,178.883 267.413,186.567C259.729,194.252 249.307,198.569 238.439,198.569L130.794,198.569C126.268,198.569 122.599,194.9 122.599,190.374C122.599,184.979 122.599,177.943 122.599,172.547C122.599,168.021 126.268,164.352 130.794,164.352C153.097,164.352 214.701,164.352 237.003,164.352C241.529,164.352 245.198,160.683 245.198,156.157L245.198,75.814C245.198,73.641 244.335,71.556 242.798,70.019C241.261,68.483 239.177,67.619 237.003,67.619C203.361,67.619 76.054,67.619 42.412,67.619C40.238,67.619 38.154,68.483 36.617,70.019C35.08,71.556 34.217,73.641 34.217,75.814L34.217,225.807C34.217,227.981 35.08,230.065 36.617,231.602C38.154,233.139 40.238,234.002 42.412,234.002C79.785,234.002 186.089,234.002 223.462,234.002C227.988,234.002 231.657,237.672 231.657,242.198C231.657,247.593 231.657,254.629 231.657,260.024C231.657,264.55 227.988,268.219 223.462,268.219C189.746,268.219 108.122,268.219 40.976,268.219Z" style="fill:#f71943;"/><path d="M87.321,94.702C91.847,94.702 95.516,98.371 95.516,102.897L95.516,120.724C95.516,125.25 91.847,128.919 87.321,128.919L69.495,128.919C64.969,128.919 61.3,125.25 61.3,120.724L61.3,102.897C61.3,98.371 64.969,94.702 69.495,94.702L87.321,94.702ZM209.92,94.702C214.446,94.702 218.115,98.371 218.115,102.897L218.115,120.724C218.115,125.25 214.446,128.919 209.92,128.919L192.094,128.919C187.568,128.919 183.899,125.25 183.899,120.724L183.899,102.897C183.899,98.371 187.568,94.702 192.094,94.702L209.92,94.702ZM148.621,94.702C153.147,94.702 156.816,98.371 156.816,102.897L156.816,120.724C156.816,125.25 153.147,128.919 148.621,128.919L130.794,128.919C126.268,128.919 122.599,125.25 122.599,120.724L122.599,102.897C122.599,98.371 126.268,94.702 130.794,94.702L148.621,94.702ZM87.321,164.352C91.847,164.352 95.516,168.021 95.516,172.547L95.516,190.374C95.516,194.9 91.847,198.569 87.321,198.569L69.495,198.569C64.969,198.569 61.3,194.9 61.3,190.374L61.3,172.547C61.3,168.021 64.969,164.352 69.495,164.352L87.321,164.352Z" style="fill:#1c080e;"/><g transform="matrix(0.962857,0,0,0.962857,-2555.81,-719.866)"><g transform="matrix(207.903,0,0,207.903,3026.59,978.382)"><path d="M0.553,-0.598L0.194,-0.598L0.194,-0.405L0.463,-0.405L0.463,-0.304L0.194,-0.304L0.194,-0.102L0.553,-0.102L0.553,-0L0.072,-0L0.072,-0.7L0.553,-0.7L0.553,-0.598Z" style="fill:#1c080e;fill-rule:nonzero;"/></g><g transform="matrix(207.903,0,0,207.903,3152.37,978.382)"><path d="M0.079,-0.035C0.079,0.004 0.069,0.035 0.048,0.059C0.028,0.083 -0.001,0.097 -0.038,0.1L-0.02,0.2C0.017,0.199 0.051,0.189 0.084,0.171C0.117,0.153 0.143,0.127 0.164,0.092C0.185,0.057 0.195,0.015 0.195,-0.034L0.195,-0.5L0.079,-0.5L0.079,-0.035ZM0.136,-0.574C0.115,-0.574 0.097,-0.581 0.082,-0.595C0.068,-0.609 0.061,-0.626 0.061,-0.646C0.061,-0.667 0.068,-0.684 0.082,-0.698C0.097,-0.713 0.115,-0.72 0.136,-0.72C0.157,-0.72 0.175,-0.713 0.189,-0.698C0.204,-0.684 0.211,-0.667 0.211,-0.646C0.211,-0.626 0.204,-0.609 0.189,-0.595C0.175,-0.581 0.157,-0.574 0.136,-0.574Z" style="fill:#1c080e;fill-rule:nonzero;"/></g><g transform="matrix(207.903,0,0,207.903,3209.12,978.382)"><path d="M0.29,0.007C0.241,0.007 0.197,-0.004 0.159,-0.026C0.122,-0.048 0.092,-0.079 0.071,-0.118C0.05,-0.157 0.04,-0.203 0.04,-0.254C0.04,-0.303 0.05,-0.346 0.071,-0.384C0.092,-0.422 0.12,-0.452 0.157,-0.474C0.194,-0.496 0.235,-0.507 0.281,-0.507C0.329,-0.507 0.371,-0.497 0.407,-0.476C0.444,-0.455 0.472,-0.426 0.492,-0.389C0.513,-0.352 0.523,-0.31 0.523,-0.261C0.523,-0.253 0.522,-0.244 0.521,-0.235C0.52,-0.226 0.519,-0.217 0.518,-0.207L0.165,-0.207C0.168,-0.184 0.175,-0.165 0.186,-0.148C0.198,-0.131 0.213,-0.118 0.23,-0.109C0.248,-0.1 0.269,-0.096 0.292,-0.096C0.319,-0.096 0.343,-0.101 0.365,-0.112C0.387,-0.123 0.402,-0.138 0.41,-0.156L0.512,-0.123C0.492,-0.082 0.462,-0.05 0.423,-0.027C0.384,-0.004 0.34,0.007 0.29,0.007ZM0.396,-0.299C0.395,-0.32 0.39,-0.338 0.379,-0.354C0.369,-0.37 0.355,-0.383 0.338,-0.392C0.321,-0.402 0.303,-0.407 0.282,-0.407C0.263,-0.407 0.246,-0.402 0.23,-0.393C0.214,-0.384 0.2,-0.371 0.189,-0.355C0.178,-0.34 0.17,-0.321 0.166,-0.299L0.396,-0.299Z" style="fill:#1c080e;fill-rule:nonzero;"/></g><g transform="matrix(207.903,0,0,207.903,3325.76,978.382)"><path d="M0.066,-0.5L0.171,-0.5L0.179,-0.451C0.196,-0.468 0.215,-0.482 0.238,-0.492C0.261,-0.502 0.286,-0.507 0.313,-0.507C0.352,-0.507 0.386,-0.499 0.414,-0.482C0.443,-0.466 0.464,-0.442 0.479,-0.41C0.494,-0.379 0.502,-0.339 0.502,-0.292L0.502,-0L0.386,-0L0.386,-0.276C0.386,-0.317 0.378,-0.349 0.361,-0.37C0.344,-0.391 0.319,-0.402 0.286,-0.402C0.252,-0.402 0.226,-0.391 0.208,-0.37C0.191,-0.349 0.182,-0.317 0.182,-0.275L0.182,-0L0.066,-0L0.066,-0.5Z" style="fill:#1c080e;fill-rule:nonzero;"/></g><g transform="matrix(207.903,0,0,207.903,3442.18,978.382)"><path d="M0.433,-0.425L0.42,-0.423L0.42,-0.72L0.536,-0.72L0.536,-0L0.43,-0L0.422,-0.062C0.405,-0.043 0.384,-0.026 0.357,-0.013C0.33,0 0.299,0.007 0.263,0.007C0.218,0.007 0.179,-0.004 0.146,-0.025C0.113,-0.046 0.087,-0.076 0.068,-0.115C0.049,-0.154 0.04,-0.199 0.04,-0.25C0.04,-0.301 0.049,-0.346 0.068,-0.385C0.087,-0.424 0.113,-0.454 0.146,-0.475C0.179,-0.496 0.218,-0.507 0.263,-0.507C0.302,-0.507 0.337,-0.499 0.366,-0.483C0.395,-0.468 0.418,-0.448 0.433,-0.425ZM0.164,-0.25C0.164,-0.205 0.176,-0.168 0.199,-0.14C0.222,-0.112 0.253,-0.098 0.291,-0.098C0.314,-0.098 0.335,-0.104 0.354,-0.115C0.374,-0.127 0.39,-0.144 0.402,-0.167C0.414,-0.19 0.42,-0.217 0.42,-0.25C0.42,-0.283 0.414,-0.31 0.402,-0.333C0.39,-0.356 0.374,-0.373 0.354,-0.384C0.335,-0.396 0.314,-0.402 0.291,-0.402C0.253,-0.402 0.222,-0.388 0.199,-0.36C0.176,-0.332 0.164,-0.295 0.164,-0.25Z" style="fill:#1c080e;fill-rule:nonzero;"/></g><g transform="matrix(207.903,0,0,207.903,3566.93,978.382)"><path d="M0.363,-0L0.354,-0.061C0.337,-0.04 0.318,-0.023 0.296,-0.012C0.274,-0.001 0.245,0.005 0.209,0.005C0.175,0.005 0.145,-0.001 0.12,-0.012C0.095,-0.023 0.075,-0.04 0.061,-0.061C0.048,-0.082 0.041,-0.107 0.041,-0.135C0.041,-0.177 0.056,-0.212 0.087,-0.24C0.118,-0.268 0.163,-0.285 0.224,-0.292L0.354,-0.307L0.354,-0.345C0.354,-0.36 0.347,-0.374 0.333,-0.387C0.319,-0.4 0.297,-0.407 0.267,-0.407C0.241,-0.407 0.218,-0.4 0.199,-0.387C0.18,-0.374 0.167,-0.355 0.16,-0.33L0.06,-0.367C0.073,-0.412 0.098,-0.446 0.135,-0.47C0.173,-0.495 0.219,-0.507 0.273,-0.507C0.338,-0.507 0.387,-0.491 0.42,-0.458C0.453,-0.425 0.47,-0.383 0.47,-0.332L0.47,-0L0.363,-0ZM0.354,-0.219L0.236,-0.204C0.211,-0.201 0.193,-0.194 0.18,-0.183C0.168,-0.172 0.162,-0.159 0.162,-0.143C0.162,-0.128 0.168,-0.115 0.18,-0.104C0.192,-0.093 0.209,-0.088 0.23,-0.088C0.257,-0.088 0.279,-0.093 0.297,-0.102C0.316,-0.112 0.33,-0.126 0.339,-0.144C0.349,-0.163 0.354,-0.185 0.354,-0.212L0.354,-0.219Z" style="fill:#1c080e;fill-rule:nonzero;"/></g><g transform="matrix(207.903,0,0,207.903,3676.7,978.382)"><path d="M0.131,0.007C0.109,0.007 0.091,-0 0.076,-0.015C0.061,-0.03 0.054,-0.048 0.054,-0.069C0.054,-0.09 0.061,-0.107 0.076,-0.122C0.091,-0.137 0.109,-0.144 0.131,-0.144C0.152,-0.144 0.17,-0.137 0.185,-0.122C0.2,-0.107 0.207,-0.09 0.207,-0.069C0.207,-0.048 0.2,-0.03 0.185,-0.015C0.17,-0 0.152,0.007 0.131,0.007Z" style="fill:#f71943;fill-rule:nonzero;"/></g></g></g></svg>