<?xml version="1.0" encoding="UTF-8" standalone="no"?><!DOCTYPE svg PUBLIC "-//W3C//DTD SVG 1.1//EN" "http://www.w3.org/Graphics/SVG/1.1/DTD/svg11.dtd"><svg width="1000px" height="1000px" version="1.1" xmlns="http://www.w3.org/2000/svg" xmlns:xlink="http://www.w3.org/1999/xlink" xml:space="preserve" xmlns:serif="http://www.serif.com/" style="fill-rule:evenodd;clip-rule:evenodd;stroke-linejoin:round;stroke-miterlimit:2;"><rect id="Artboard2" x="0" y="0" width="1000" height="1000" style="fill:none;"/><clipPath id="_clip1"><rect x="0" y="0" width="1000" height="1000"/></clipPath><g clip-path="url(#_clip1)"><rect x="0" y="0" width="1000" height="1000" style="fill:#fef4f7;"/><g><path d="M270.892,788.203C245.674,788.203 221.489,778.185 203.657,760.353C185.825,742.521 175.807,718.336 175.807,693.118L175.807,338.393C175.807,313.175 185.825,288.99 203.657,271.158C221.489,253.326 245.674,243.308 270.892,243.308L336.379,243.308L336.379,184.814C336.379,174.312 344.894,165.797 355.396,165.797C367.916,165.797 384.243,165.797 396.763,165.797C407.265,165.797 415.779,174.312 415.779,184.814C415.779,207.763 415.779,243.308 415.779,243.308L583.638,243.308L583.638,184.814C583.638,174.312 592.153,165.797 602.655,165.797C615.175,165.797 631.502,165.797 644.022,165.797C654.524,165.797 663.039,174.312 663.039,184.814C663.039,207.763 663.039,243.308 663.039,243.308L729.108,243.308C754.326,243.308 778.511,253.326 796.343,271.158C814.175,288.99 824.193,313.175 824.193,338.393C824.193,397.273 824.193,472.614 824.193,531.494C824.193,556.712 814.175,580.897 796.343,598.729C778.511,616.561 754.326,626.579 729.108,626.579C643.746,626.579 525.056,626.579 479.317,626.579C468.814,626.579 460.3,618.064 460.3,607.562C460.3,595.042 460.3,578.715 460.3,566.195C460.3,555.693 468.814,547.179 479.317,547.179C531.07,547.179 674.023,547.179 725.776,547.179C736.278,547.179 744.793,538.664 744.793,528.162L744.793,341.725C744.793,336.682 742.789,331.845 739.223,328.278C735.656,324.712 730.819,322.708 725.776,322.708C647.709,322.708 352.291,322.708 274.224,322.708C269.181,322.708 264.344,324.712 260.777,328.278C257.211,331.845 255.207,336.682 255.207,341.725C255.207,407.385 255.207,624.126 255.207,689.786C255.207,694.829 257.211,699.666 260.777,703.233C264.344,706.799 269.181,708.803 274.224,708.803C360.949,708.803 607.628,708.803 694.353,708.803C704.855,708.803 713.369,717.317 713.369,727.819C713.369,740.339 713.369,756.666 713.369,769.186C713.369,779.688 704.855,788.203 694.353,788.203C616.115,788.203 426.705,788.203 270.892,788.203Z" style="fill:#f71943;"/><path d="M378.437,385.555C388.94,385.555 397.454,394.069 397.454,404.571L397.454,445.938C397.454,456.44 388.94,464.955 378.437,464.955L337.071,464.955C326.568,464.955 318.054,456.44 318.054,445.938L318.054,404.571C318.054,394.069 326.568,385.555 337.071,385.555L378.437,385.555ZM662.929,385.555C673.432,385.555 681.946,394.069 681.946,404.571L681.946,445.938C681.946,456.44 673.432,464.955 662.929,464.955L621.563,464.955C611.06,464.955 602.546,456.44 602.546,445.938L602.546,404.571C602.546,394.069 611.06,385.555 621.563,385.555L662.929,385.555ZM520.683,385.555C531.186,385.555 539.7,394.069 539.7,404.571L539.7,445.938C539.7,456.44 531.186,464.955 520.683,464.955L479.317,464.955C468.814,464.955 460.3,456.44 460.3,445.938L460.3,404.571C460.3,394.069 468.814,385.555 479.317,385.555L520.683,385.555ZM378.437,547.179C388.94,547.179 397.454,555.693 397.454,566.195L397.454,607.562C397.454,618.064 388.94,626.579 378.437,626.579L337.071,626.579C326.568,626.579 318.054,618.064 318.054,607.562L318.054,566.195C318.054,555.693 326.568,547.179 337.071,547.179L378.437,547.179Z" style="fill:#1c080e;"/></g></g></svg>